<svg xmlns="http://www.w3.org/2000/svg" viewBox="0 0 16 16" shape-rendering="crispEdges">
  <path fill="#171717" d="M5 0h3v1h-3ZM9 0h3v1h-3ZM4 1h1v1h-1ZM8 1h1v1h-1ZM12 1h1v1h-1ZM4 2h1v1h-1ZM8 2h1v1h-1ZM13 2h1v1h-1ZM5 3h1v1h-1ZM7 3h1v1h-1ZM9 3h1v1h-1ZM13 3h1v1h-1ZM6 4h1v1h-1ZM10 4h3v1h-3ZM4 5h10v1h-10ZM3 6h1v1h-1ZM5 6h2v1h-2ZM9 6h2v1h-2ZM14 6h1v1h-1ZM2 7h1v1h-1ZM5 7h2v1h-2ZM9 7h2v1h-2ZM15 7h1v1h-1ZM2 8h1v1h-1ZM5 8h2v1h-2ZM9 8h2v1h-2ZM12 8h2v1h-2ZM15 8h1v1h-1ZM0 9h3v1h-3ZM5 9h2v1h-2ZM9 9h2v1h-2ZM12 9h2v1h-2ZM15 9h1v1h-1ZM2 10h1v1h-1ZM5 10h2v1h-2ZM9 10h2v1h-2ZM15 10h1v1h-1ZM3 11h1v1h-1ZM5 11h2v1h-2ZM9 11h2v1h-2ZM14 11h1v1h-1ZM4 12h10v1h-10ZM6 13h1v1h-1ZM10 13h1v1h-1ZM5 14h1v1h-1ZM9 14h1v1h-1Z"/>
  <path fill="#FCD34D" d="M4 6h1v1h-1ZM7 6h2v1h-2ZM11 6h3v1h-3ZM3 7h2v1h-2ZM7 7h2v1h-2ZM11 7h4v1h-4ZM3 8h2v1h-2ZM7 8h2v1h-2ZM11 8h1v1h-1ZM14 8h1v1h-1ZM3 9h2v1h-2ZM7 9h2v1h-2ZM11 9h1v1h-1ZM14 9h1v1h-1ZM3 10h2v1h-2ZM7 10h2v1h-2ZM11 10h2v1h-2ZM4 11h1v1h-1ZM7 11h2v1h-2ZM11 11h3v1h-3Z"/>
  <path fill="#F472B6" d="M13 10h2v1h-2Z"/>
  <path fill="#FFFFFF" d="M5 1h2v1h-2ZM9 1h2v1h-2ZM5 2h1v1h-1ZM9 2h1v1h-1ZM12 3h1v1h-1Z"/>
  <path fill="#BAE6FD" d="M7 1h1v1h-1ZM11 1h1v1h-1ZM6 2h2v1h-2ZM10 2h3v1h-3ZM6 3h1v1h-1ZM10 3h2v1h-2Z"/>
</svg>